<?xml version="1.0" encoding="UTF-8"?>
<svg xmlns="http://www.w3.org/2000/svg" xmlns:inkscape="http://www.inkscape.org/namespaces/inkscape" xmlns:sodipodi="http://sodipodi.sourceforge.net/DTD/sodipodi-0.dtd" width="720" height="400" viewBox="0 0 720 400" class="tm-grafik">
<title>Resultierende zweier Kräfte</title>
<g inkscape:groupmode="layer" id="system" inkscape:label="01 Kräfte im Koordinatensystem" data-ebene="system">
<g><g><path d="M 50,320 L 443.6,320" fill="none" stroke="#006414" stroke-width="1.25" stroke-linecap="butt"/><path d="M 450,320 L 442,322.5 L 442,317.5 Z" fill="#006414" stroke="none" stroke-linejoin="round"/></g><text x="454" y="337.46" fill="#006414" stroke="#ffffff" stroke-width="4" stroke-linejoin="round" paint-order="stroke" font-family="'Latin Modern Roman','LM Roman 10','CMU Serif',serif" font-size="19" font-style="italic" text-anchor="start" xml:space="preserve"><tspan>x</tspan></text><g><path d="M 250,370 L 250,76.4" fill="none" stroke="#006414" stroke-width="1.25" stroke-linecap="butt"/><path d="M 250,70 L 252.5,78 L 247.5,78 Z" fill="#006414" stroke="none" stroke-linejoin="round"/></g><text x="258" y="74.46" fill="#006414" stroke="#ffffff" stroke-width="4" stroke-linejoin="round" paint-order="stroke" font-family="'Latin Modern Roman','LM Roman 10','CMU Serif',serif" font-size="19" font-style="italic" text-anchor="start" xml:space="preserve"><tspan>y</tspan></text></g>
<g><path d="M 250,320 L 345.61,264.8" fill="none" stroke="#ff0000" stroke-width="1.9" stroke-linecap="butt"/><path d="M 353.92,260 L 345.53,269.46 L 341.53,262.54 Z" fill="#ff0000" stroke="none" stroke-linejoin="round"/><text x="293.96" y="278.46" fill="#ff0000" stroke="#ffffff" stroke-width="4" stroke-linejoin="round" paint-order="stroke" font-family="'Latin Modern Roman','LM Roman 10','CMU Serif',serif" font-size="19" font-style="italic" text-anchor="middle" xml:space="preserve"><tspan>F</tspan><tspan baseline-shift="sub" font-size="70%" font-style="normal">1</tspan></text></g>
<g><path d="M 250,320 L 129.51,199.51" fill="none" stroke="#ff0000" stroke-width="1.9" stroke-linecap="butt"/><path d="M 122.72,192.72 L 134.03,198.38 L 128.38,204.03 Z" fill="#ff0000" stroke="none" stroke-linejoin="round"/><text x="168.36" y="246.82" fill="#ff0000" stroke="#ffffff" stroke-width="4" stroke-linejoin="round" paint-order="stroke" font-family="'Latin Modern Roman','LM Roman 10','CMU Serif',serif" font-size="19" font-style="italic" text-anchor="middle" xml:space="preserve"><tspan>F</tspan><tspan baseline-shift="sub" font-size="70%" font-style="normal">2</tspan></text></g>
<g><path d="M 320,320 L 319.98,318.17 L 319.9,316.34 L 319.78,314.51 L 319.62,312.68 L 319.4,310.86 L 319.14,309.05 L 318.83,307.24 L 318.47,305.45 L 318.07,303.66 L 317.61,301.88 L 317.12,300.12 L 316.57,298.37 L 315.98,296.63 L 315.35,294.91 L 314.67,293.21 L 313.95,291.53 L 313.18,289.86 L 312.37,288.22 L 311.52,286.6 L 310.62,285" fill="none" stroke="#006414" stroke-width="0.8" stroke-linejoin="round"/><text x="327.27" y="304.39" fill="#006414" stroke="#ffffff" stroke-width="4" stroke-linejoin="round" paint-order="stroke" font-family="'Latin Modern Roman','LM Roman 10','CMU Serif',serif" font-size="15" font-style="italic" text-anchor="middle" xml:space="preserve"><tspan>30°</tspan></text></g>
<path d="M 60,320 L 250,320" fill="none" stroke="#7a7a7a" stroke-width="0.6" stroke-linecap="butt"/>
<g><path d="M 207.57,277.57 L 205.94,279.27 L 204.38,281.03 L 202.88,282.85 L 201.46,284.73 L 200.11,286.67 L 198.84,288.65 L 197.65,290.68 L 196.54,292.76 L 195.51,294.88 L 194.57,297.04 L 193.71,299.23 L 192.94,301.46 L 192.25,303.71 L 191.66,305.99 L 191.15,308.29 L 190.74,310.61 L 190.42,312.95 L 190.18,315.29 L 190.05,317.64 L 190,320" fill="none" stroke="#006414" stroke-width="0.8" stroke-linejoin="round"/><text x="185.33" y="298.31" fill="#006414" stroke="#ffffff" stroke-width="4" stroke-linejoin="round" paint-order="stroke" font-family="'Latin Modern Roman','LM Roman 10','CMU Serif',serif" font-size="15" font-style="italic" text-anchor="middle" xml:space="preserve"><tspan>45°</tspan></text></g>
<circle cx="250" cy="320" r="3.2" fill="#000000" stroke="#000000" stroke-width="0.8"/>
</g>
<g inkscape:groupmode="layer" id="komponenten" inkscape:label="02 Komponenten" data-ebene="komponenten">
<path d="M 353.92,260 L 250,260" fill="none" stroke="#7a7a7a" stroke-width="0.8" stroke-linecap="butt" stroke-dasharray="4 3"/>
<g><path d="M 250,320 L 345.92,320" fill="none" stroke="#ff0000" stroke-width="1.4" stroke-linecap="butt" stroke-dasharray="6 4"/><path d="M 353.92,320 L 343.92,323.5 L 343.92,316.5 Z" fill="#ff0000" stroke="none" stroke-linejoin="round"/><text x="301.96" y="343.44" fill="#ff0000" stroke="#ffffff" stroke-width="4" stroke-linejoin="round" paint-order="stroke" font-family="'Latin Modern Roman','LM Roman 10','CMU Serif',serif" font-size="16" font-style="italic" text-anchor="middle" xml:space="preserve"><tspan>F</tspan><tspan baseline-shift="sub" font-size="70%" font-style="italic">1x</tspan></text></g>
<path d="M 122.72,192.72 L 250,192.72" fill="none" stroke="#7a7a7a" stroke-width="0.8" stroke-linecap="butt" stroke-dasharray="4 3"/>
<g><path d="M 250,320 L 130.72,320" fill="none" stroke="#ff0000" stroke-width="1.4" stroke-linecap="butt" stroke-dasharray="6 4"/><path d="M 122.72,320 L 132.72,316.5 L 132.72,323.5 Z" fill="#ff0000" stroke="none" stroke-linejoin="round"/><text x="186.36" y="343.44" fill="#ff0000" stroke="#ffffff" stroke-width="4" stroke-linejoin="round" paint-order="stroke" font-family="'Latin Modern Roman','LM Roman 10','CMU Serif',serif" font-size="16" font-style="italic" text-anchor="middle" xml:space="preserve"><tspan>F</tspan><tspan baseline-shift="sub" font-size="70%" font-style="italic">2x</tspan></text></g>
<g><path d="M 353.92,320 L 353.92,268" fill="none" stroke="#ff0000" stroke-width="1.4" stroke-linecap="butt" stroke-dasharray="6 4"/><path d="M 353.92,260 L 357.42,270 L 350.42,270 Z" fill="#ff0000" stroke="none" stroke-linejoin="round"/><text x="379.92" y="295.44" fill="#ff0000" stroke="#ffffff" stroke-width="4" stroke-linejoin="round" paint-order="stroke" font-family="'Latin Modern Roman','LM Roman 10','CMU Serif',serif" font-size="16" font-style="italic" text-anchor="middle" xml:space="preserve"><tspan>F</tspan><tspan baseline-shift="sub" font-size="70%" font-style="italic">1y</tspan></text></g>
<g><path d="M 122.72,320 L 122.72,200.72" fill="none" stroke="#ff0000" stroke-width="1.4" stroke-linecap="butt" stroke-dasharray="6 4"/><path d="M 122.72,192.72 L 126.22,202.72 L 119.22,202.72 Z" fill="#ff0000" stroke="none" stroke-linejoin="round"/><text x="94.72" y="261.8" fill="#ff0000" stroke="#ffffff" stroke-width="4" stroke-linejoin="round" paint-order="stroke" font-family="'Latin Modern Roman','LM Roman 10','CMU Serif',serif" font-size="16" font-style="italic" text-anchor="middle" xml:space="preserve"><tspan>F</tspan><tspan baseline-shift="sub" font-size="70%" font-style="italic">2y</tspan></text></g>
</g>
<g inkscape:groupmode="layer" id="krafteck" inkscape:label="03 Krafteck" data-ebene="krafteck">
<text x="530" y="374.76" fill="#444444" stroke="#ffffff" stroke-width="4" stroke-linejoin="round" paint-order="stroke" font-family="'Latin Modern Roman','LM Roman 10','CMU Serif',serif" font-size="14" font-style="normal" text-anchor="middle" xml:space="preserve"><tspan font-style="normal">Krafteck</tspan></text>
<g><path d="M 560,330 L 655.61,274.8" fill="none" stroke="#ff0000" stroke-width="1.9" stroke-linecap="butt"/><path d="M 663.92,270 L 655.53,279.46 L 651.53,272.54 Z" fill="#ff0000" stroke="none" stroke-linejoin="round"/><text x="611.96" y="324.46" fill="#ff0000" stroke="#ffffff" stroke-width="4" stroke-linejoin="round" paint-order="stroke" font-family="'Latin Modern Roman','LM Roman 10','CMU Serif',serif" font-size="19" font-style="italic" text-anchor="middle" xml:space="preserve"><tspan>F</tspan><tspan baseline-shift="sub" font-size="70%" font-style="normal">1</tspan></text></g>
<g><path d="M 663.92,270 L 543.43,149.51" fill="none" stroke="#ff0000" stroke-width="1.9" stroke-linecap="butt"/><path d="M 536.64,142.72 L 547.96,148.38 L 542.3,154.03 Z" fill="#ff0000" stroke="none" stroke-linejoin="round"/><text x="618.28" y="208.82" fill="#ff0000" stroke="#ffffff" stroke-width="4" stroke-linejoin="round" paint-order="stroke" font-family="'Latin Modern Roman','LM Roman 10','CMU Serif',serif" font-size="19" font-style="italic" text-anchor="middle" xml:space="preserve"><tspan>F</tspan><tspan baseline-shift="sub" font-size="70%" font-style="normal">2</tspan></text></g>
<circle cx="560" cy="330" r="3.2" fill="#000000" stroke="#000000" stroke-width="0.8"/>
</g>
<g inkscape:groupmode="layer" id="resultierende" inkscape:label="04 Resultierende" data-ebene="resultierende">
<g><path d="M 560,330 L 537.83,152.25" fill="none" stroke="#ff0000" stroke-width="2.6" stroke-linecap="butt"/><path d="M 536.64,142.72 L 542.1,154.13 L 534.16,155.12 Z" fill="#ff0000" stroke="none" stroke-linejoin="round"/><text x="526.32" y="242.82" fill="#ff0000" stroke="#ffffff" stroke-width="4" stroke-linejoin="round" paint-order="stroke" font-family="'Latin Modern Roman','LM Roman 10','CMU Serif',serif" font-size="19" font-style="italic" text-anchor="middle" xml:space="preserve"><tspan>F</tspan><tspan baseline-shift="sub" font-size="70%" font-style="normal">R</tspan></text></g>
<g><path d="M 250,320 L 227.83,142.25" fill="none" stroke="#ff0000" stroke-width="2.6" stroke-linecap="butt"/><path d="M 226.64,132.72 L 232.1,144.13 L 224.16,145.12 Z" fill="#ff0000" stroke="none" stroke-linejoin="round"/><text x="258.32" y="192.82" fill="#ff0000" stroke="#ffffff" stroke-width="4" stroke-linejoin="round" paint-order="stroke" font-family="'Latin Modern Roman','LM Roman 10','CMU Serif',serif" font-size="19" font-style="italic" text-anchor="middle" xml:space="preserve"><tspan>F</tspan><tspan baseline-shift="sub" font-size="70%" font-style="normal">R</tspan></text></g>
<g><path d="M 284,320 L 283.88,317.12 L 283.51,314.26 L 282.91,311.45 L 282.07,308.69 L 280.99,306.02 L 279.7,303.45 L 278.19,300.99 L 276.48,298.68 L 274.58,296.51 L 272.5,294.51 L 270.27,292.7 L 267.88,291.08 L 265.37,289.67 L 262.75,288.48 L 260.04,287.51 L 257.25,286.78 L 254.41,286.29 L 251.54,286.04 L 248.66,286.03 L 245.79,286.26" fill="none" stroke="#006414" stroke-width="0.8" stroke-linejoin="round"/></g>
<text x="262" y="279.44" fill="#006414" stroke="#ffffff" stroke-width="4" stroke-linejoin="round" paint-order="stroke" font-family="'Latin Modern Roman','LM Roman 10','CMU Serif',serif" font-size="16" font-style="italic" text-anchor="start" xml:space="preserve"><tspan>α</tspan><tspan baseline-shift="sub" font-size="70%" font-style="normal">R</tspan></text>
</g>
</svg>