<?xml version="1.0" encoding="UTF-8"?>
<svg xmlns="http://www.w3.org/2000/svg" xmlns:inkscape="http://www.inkscape.org/namespaces/inkscape" xmlns:sodipodi="http://sodipodi.sourceforge.net/DTD/sodipodi-0.dtd" width="500" height="240" viewBox="0 0 500 240" class="tm-grafik">
<title>Aufgabe 1.5.3</title>
<g inkscape:groupmode="layer" id="system" inkscape:label="01 System" data-ebene="system">
<g><path d="M 80,73.5 L 380,73.5 L 380,66.5 L 80,66.5 Z" fill="#e6e6e6" stroke="#000000" stroke-width="1.25" stroke-linejoin="round"/></g>
<g><path d="M 277,70 L 277,165 L 283,165 L 283,70 Z" fill="#e6e6e6" stroke="#000000" stroke-width="1.25" stroke-linejoin="round"/></g>
<g><path d="M 80,74 L 80,126" fill="none" stroke="#006414" stroke-width="0.8" stroke-linecap="butt"/><path d="M 280,74 L 280,126" fill="none" stroke="#006414" stroke-width="0.8" stroke-linecap="butt"/><g><path d="M 86.4,120 L 273.6,120" fill="none" stroke="#006414" stroke-width="0.8" stroke-linecap="butt"/><path d="M 280,120 L 272,122.5 L 272,117.5 Z" fill="#006414" stroke="none" stroke-linejoin="round"/><path d="M 80,120 L 88,117.5 L 88,122.5 Z" fill="#006414" stroke="none" stroke-linejoin="round"/></g><text x="180" y="137.46" fill="#006414" stroke="#ffffff" stroke-width="4" stroke-linejoin="round" paint-order="stroke" font-family="'Latin Modern Roman','LM Roman 10','CMU Serif',serif" font-size="19" font-style="italic" text-anchor="middle" xml:space="preserve"><tspan>2l</tspan></text></g>
<g><path d="M 280,74 L 280,126" fill="none" stroke="#006414" stroke-width="0.8" stroke-linecap="butt"/><path d="M 380,74 L 380,126" fill="none" stroke="#006414" stroke-width="0.8" stroke-linecap="butt"/><g><path d="M 286.4,120 L 373.6,120" fill="none" stroke="#006414" stroke-width="0.8" stroke-linecap="butt"/><path d="M 380,120 L 372,122.5 L 372,117.5 Z" fill="#006414" stroke="none" stroke-linejoin="round"/><path d="M 280,120 L 288,117.5 L 288,122.5 Z" fill="#006414" stroke="none" stroke-linejoin="round"/></g><text x="330" y="137.46" fill="#006414" stroke="#ffffff" stroke-width="4" stroke-linejoin="round" paint-order="stroke" font-family="'Latin Modern Roman','LM Roman 10','CMU Serif',serif" font-size="19" font-style="italic" text-anchor="middle" xml:space="preserve"><tspan>l</tspan></text></g>
<g><g transform="rotate(90 76.8 70)"><path d="M 76.8,70 L 65.75,87.55 L 87.85,87.55 Z" fill="#d9d9d9" stroke="#000000" stroke-width="1.25" stroke-linejoin="round"/><path d="M 59.25,87.55 L 94.35,87.55" fill="none" stroke="#000000" stroke-width="1.25" stroke-linecap="butt"/><path d="M 61.25,87.55 L 54.25,94.55" fill="none" stroke="#000000" stroke-width="0.8" stroke-linecap="butt"/><path d="M 67.25,87.55 L 60.25,94.55" fill="none" stroke="#000000" stroke-width="0.8" stroke-linecap="butt"/><path d="M 73.25,87.55 L 66.25,94.55" fill="none" stroke="#000000" stroke-width="0.8" stroke-linecap="butt"/><path d="M 79.25,87.55 L 72.25,94.55" fill="none" stroke="#000000" stroke-width="0.8" stroke-linecap="butt"/><path d="M 85.25,87.55 L 78.25,94.55" fill="none" stroke="#000000" stroke-width="0.8" stroke-linecap="butt"/><path d="M 91.25,87.55 L 84.25,94.55" fill="none" stroke="#000000" stroke-width="0.8" stroke-linecap="butt"/><circle cx="76.8" cy="70" r="3.2" fill="#ffffff" stroke="#000000" stroke-width="1.25"/></g><text x="66.8" y="52.46" fill="#006414" stroke="#ffffff" stroke-width="4" stroke-linejoin="round" paint-order="stroke" font-family="'Latin Modern Roman','LM Roman 10','CMU Serif',serif" font-size="19" font-style="italic" text-anchor="middle" xml:space="preserve"><tspan>A</tspan></text></g>
<g><circle cx="280" cy="70" r="3.6" fill="#ffffff" stroke="#000000" stroke-width="1.25"/></g>
<g><g><path d="M 280,165 L 268.95,182.55 L 291.05,182.55 Z" fill="#d9d9d9" stroke="#000000" stroke-width="1.25" stroke-linejoin="round"/><path d="M 262.45,182.55 L 297.55,182.55" fill="none" stroke="#000000" stroke-width="1.25" stroke-linecap="butt"/><path d="M 264.45,182.55 L 257.45,189.55" fill="none" stroke="#000000" stroke-width="0.8" stroke-linecap="butt"/><path d="M 270.45,182.55 L 263.45,189.55" fill="none" stroke="#000000" stroke-width="0.8" stroke-linecap="butt"/><path d="M 276.45,182.55 L 269.45,189.55" fill="none" stroke="#000000" stroke-width="0.8" stroke-linecap="butt"/><path d="M 282.45,182.55 L 275.45,189.55" fill="none" stroke="#000000" stroke-width="0.8" stroke-linecap="butt"/><path d="M 288.45,182.55 L 281.45,189.55" fill="none" stroke="#000000" stroke-width="0.8" stroke-linecap="butt"/><path d="M 294.45,182.55 L 287.45,189.55" fill="none" stroke="#000000" stroke-width="0.8" stroke-linecap="butt"/><circle cx="280" cy="165" r="3.2" fill="#ffffff" stroke="#000000" stroke-width="1.25"/></g><text x="302" y="179.46" fill="#006414" stroke="#ffffff" stroke-width="4" stroke-linejoin="round" paint-order="stroke" font-family="'Latin Modern Roman','LM Roman 10','CMU Serif',serif" font-size="19" font-style="italic" text-anchor="middle" xml:space="preserve"><tspan>B</tspan></text></g>
<text x="266" y="62.46" fill="#000000" stroke="#ffffff" stroke-width="4" stroke-linejoin="round" paint-order="stroke" font-family="'Latin Modern Roman','LM Roman 10','CMU Serif',serif" font-size="19" font-style="italic" text-anchor="middle" xml:space="preserve"><tspan>C</tspan></text>
<g><g><path d="M 407.5,18.87 L 384.8,58.19" fill="none" stroke="#ff0000" stroke-width="1.9" stroke-linecap="butt"/><path d="M 380,66.5 L 382.54,54.11 L 389.46,58.11 Z" fill="#ff0000" stroke="none" stroke-linejoin="round"/></g><text x="407.04" y="44.12" fill="#ff0000" stroke="#ffffff" stroke-width="4" stroke-linejoin="round" paint-order="stroke" font-family="'Latin Modern Roman','LM Roman 10','CMU Serif',serif" font-size="19" font-style="italic" text-anchor="start" xml:space="preserve"><tspan>F</tspan></text></g>
<path d="M 380,66.5 L 425,66.5" fill="none" stroke="#7a7a7a" stroke-width="0.6" stroke-linecap="butt" stroke-dasharray="3 2"/>
<g><path d="M 406,66.5 L 405.96,65.14 L 405.86,63.78 L 405.68,62.43 L 405.43,61.09 L 405.11,59.77 L 404.73,58.47 L 404.27,57.18 L 403.75,55.92 L 403.17,54.7 L 402.52,53.5 L 401.81,52.34 L 401.03,51.22 L 400.21,50.14 L 399.32,49.1 L 398.38,48.12 L 397.4,47.18 L 396.36,46.29 L 395.28,45.47 L 394.16,44.69 L 393,43.98" fill="none" stroke="#006414" stroke-width="0.8" stroke-linejoin="round"/><text x="411.18" y="53.6" fill="#006414" stroke="#ffffff" stroke-width="4" stroke-linejoin="round" paint-order="stroke" font-family="'Latin Modern Roman','LM Roman 10','CMU Serif',serif" font-size="15" font-style="italic" text-anchor="middle" xml:space="preserve"><tspan>α</tspan></text></g>
</g>
</svg>