<?xml version="1.0" encoding="UTF-8"?>
<svg xmlns="http://www.w3.org/2000/svg" xmlns:inkscape="http://www.inkscape.org/namespaces/inkscape" xmlns:sodipodi="http://sodipodi.sourceforge.net/DTD/sodipodi-0.dtd" width="620" height="330" viewBox="0 0 620 330" class="tm-grafik">
<title>Vorzeichenkonvention der Schnittgrößen</title>
<g inkscape:groupmode="layer" id="ganz" inkscape:label="01 Balken mit Schnitt" data-ebene="ganz">
<g><path d="M 70,93.5 L 540,93.5 L 540,86.5 L 70,86.5 Z" fill="#e6e6e6" stroke="#000000" stroke-width="1.25" stroke-linejoin="round"/></g>
<g><g><path d="M 70,90 L 103.6,90" fill="none" stroke="#006414" stroke-width="1.25" stroke-linecap="butt"/><path d="M 110,90 L 102,92.5 L 102,87.5 Z" fill="#006414" stroke="none" stroke-linejoin="round"/></g><text x="114" y="107.46" fill="#006414" stroke="#ffffff" stroke-width="4" stroke-linejoin="round" paint-order="stroke" font-family="'Latin Modern Roman','LM Roman 10','CMU Serif',serif" font-size="19" font-style="italic" text-anchor="start" xml:space="preserve"><tspan>x</tspan></text><g><path d="M 70,90 L 70,123.6" fill="none" stroke="#006414" stroke-width="1.25" stroke-linecap="butt"/><path d="M 70,130 L 67.5,122 L 72.5,122 Z" fill="#006414" stroke="none" stroke-linejoin="round"/></g><text x="76" y="138.46" fill="#006414" stroke="#ffffff" stroke-width="4" stroke-linejoin="round" paint-order="stroke" font-family="'Latin Modern Roman','LM Roman 10','CMU Serif',serif" font-size="19" font-style="italic" text-anchor="start" xml:space="preserve"><tspan>z</tspan></text></g>
<g><path d="M 300,67 L 300,113" fill="none" stroke="#000000" stroke-width="1.25" stroke-linecap="butt" stroke-dasharray="5 3"/></g>
<text x="310" y="65.1" fill="#000000" stroke="#ffffff" stroke-width="4" stroke-linejoin="round" paint-order="stroke" font-family="'Latin Modern Roman','LM Roman 10','CMU Serif',serif" font-size="15" font-style="italic" text-anchor="middle" xml:space="preserve"><tspan>S</tspan></text>
</g>
<g inkscape:groupmode="layer" id="getrennt" inkscape:label="02 Teilsysteme" data-ebene="getrennt">
<g><path d="M 70,233.5 L 215,233.5 L 215,226.5 L 70,226.5 Z" fill="#e6e6e6" stroke="#000000" stroke-width="1.25" stroke-linejoin="round"/></g>
<g><path d="M 385,233.5 L 540,233.5 L 540,226.5 L 385,226.5 Z" fill="#e6e6e6" stroke="#000000" stroke-width="1.25" stroke-linejoin="round"/></g>
<text x="155" y="268.76" fill="#444444" stroke="#ffffff" stroke-width="4" stroke-linejoin="round" paint-order="stroke" font-family="'Latin Modern Roman','LM Roman 10','CMU Serif',serif" font-size="14" font-style="normal" text-anchor="middle" xml:space="preserve"><tspan font-style="normal">linkes Teilsystem</tspan></text>
<text x="450" y="268.76" fill="#444444" stroke="#ffffff" stroke-width="4" stroke-linejoin="round" paint-order="stroke" font-family="'Latin Modern Roman','LM Roman 10','CMU Serif',serif" font-size="14" font-style="normal" text-anchor="middle" xml:space="preserve"><tspan font-style="normal">rechtes Teilsystem</tspan></text>
</g>
<g inkscape:groupmode="layer" id="ufer-pos" inkscape:label="03 positives Schnittufer" data-ebene="ufer-pos">
<g><g><path d="M 224,230 L 250.4,230" fill="none" stroke="#ff0000" stroke-width="1.9" stroke-linecap="butt"/><path d="M 260,230 L 248,234 L 248,226 Z" fill="#ff0000" stroke="none" stroke-linejoin="round"/></g><text x="267" y="237.46" fill="#ff0000" stroke="#ffffff" stroke-width="4" stroke-linejoin="round" paint-order="stroke" font-family="'Latin Modern Roman','LM Roman 10','CMU Serif',serif" font-size="19" font-style="italic" text-anchor="start" xml:space="preserve"><tspan>N(x)</tspan></text><g><path d="M 219,212 L 219,238.4" fill="none" stroke="#ff0000" stroke-width="1.9" stroke-linecap="butt"/><path d="M 219,248 L 215,236 L 223,236 Z" fill="#ff0000" stroke="none" stroke-linejoin="round"/></g><text x="211" y="252.46" fill="#ff0000" stroke="#ffffff" stroke-width="4" stroke-linejoin="round" paint-order="stroke" font-family="'Latin Modern Roman','LM Roman 10','CMU Serif',serif" font-size="19" font-style="italic" text-anchor="end" xml:space="preserve"><tspan>Q(x)</tspan></text><g><path d="M 233.13,221.55 L 232.6,220.5 L 232.01,219.48 L 231.36,218.49 L 230.65,217.55 L 229.89,216.65 L 229.08,215.8 L 228.22,214.99 L 227.31,214.24 L 226.36,213.54 L 225.38,212.9 L 224.35,212.32 L 223.29,211.8 L 222.21,211.34 L 221.1,210.95 L 219.97,210.63 L 218.82,210.37 L 217.65,210.18 L 216.48,210.05 L 215.31,210 L 214.13,210.02 L 212.95,210.11 L 211.79,210.26 L 210.63,210.48 L 209.49,210.77 L 208.37,211.13 L 207.27,211.56 L 206.19,212.04 L 205.15,212.59 L 204.14,213.2 L 203.17,213.87 L 202.24,214.6 L 201.36,215.37 L 200.52,216.2 L 199.74,217.08 L 199,218 L 198.32,218.96 L 197.7,219.96" fill="none" stroke="#ff0000" stroke-width="1.9" stroke-linejoin="round"/><path d="M 195.18,225.98 L 195.18,214.27 L 202.7,217.01 Z" fill="#ff0000" stroke="none" stroke-linejoin="round"/></g><text x="225" y="205.46" fill="#ff0000" stroke="#ffffff" stroke-width="4" stroke-linejoin="round" paint-order="stroke" font-family="'Latin Modern Roman','LM Roman 10','CMU Serif',serif" font-size="19" font-style="italic" text-anchor="start" xml:space="preserve"><tspan>M(x)</tspan></text></g>
<g><path d="M 145,158 L 206.98,218.1" fill="none" stroke="#444444" stroke-width="0.9" stroke-linecap="butt"/><path d="M 211,222 L 204.23,218.92 L 207.72,215.33 Z" fill="#444444" stroke="none" stroke-linejoin="round"/></g>
<text x="141" y="152.76" fill="#444444" stroke="#ffffff" stroke-width="4" stroke-linejoin="round" paint-order="stroke" font-family="'Latin Modern Roman','LM Roman 10','CMU Serif',serif" font-size="14" font-style="normal" text-anchor="end" xml:space="preserve"><tspan font-style="normal">positives Schnittufer</tspan></text>
</g>
<g inkscape:groupmode="layer" id="ufer-neg" inkscape:label="04 negatives Schnittufer" data-ebene="ufer-neg">
<g><g><path d="M 376,230 L 349.6,230" fill="none" stroke="#ff0000" stroke-width="1.9" stroke-linecap="butt"/><path d="M 340,230 L 352,226 L 352,234 Z" fill="#ff0000" stroke="none" stroke-linejoin="round"/></g><text x="333" y="237.46" fill="#ff0000" stroke="#ffffff" stroke-width="4" stroke-linejoin="round" paint-order="stroke" font-family="'Latin Modern Roman','LM Roman 10','CMU Serif',serif" font-size="19" font-style="italic" text-anchor="end" xml:space="preserve"><tspan>N(x)</tspan></text><g><path d="M 381,248 L 381,221.6" fill="none" stroke="#ff0000" stroke-width="1.9" stroke-linecap="butt"/><path d="M 381,212 L 385,224 L 377,224 Z" fill="#ff0000" stroke="none" stroke-linejoin="round"/></g><text x="389" y="252.46" fill="#ff0000" stroke="#ffffff" stroke-width="4" stroke-linejoin="round" paint-order="stroke" font-family="'Latin Modern Roman','LM Roman 10','CMU Serif',serif" font-size="19" font-style="italic" text-anchor="start" xml:space="preserve"><tspan>Q(x)</tspan></text><g><path d="M 366.87,221.55 L 367.4,220.5 L 367.99,219.48 L 368.64,218.49 L 369.35,217.55 L 370.11,216.65 L 370.92,215.8 L 371.78,214.99 L 372.69,214.24 L 373.64,213.54 L 374.62,212.9 L 375.65,212.32 L 376.71,211.8 L 377.79,211.34 L 378.9,210.95 L 380.03,210.63 L 381.18,210.37 L 382.35,210.18 L 383.52,210.05 L 384.69,210 L 385.87,210.02 L 387.05,210.11 L 388.21,210.26 L 389.37,210.48 L 390.51,210.77 L 391.63,211.13 L 392.73,211.56 L 393.81,212.04 L 394.85,212.59 L 395.86,213.2 L 396.83,213.87 L 397.76,214.6 L 398.64,215.37 L 399.48,216.2 L 400.26,217.08 L 401,218 L 401.68,218.96 L 402.3,219.96" fill="none" stroke="#ff0000" stroke-width="1.9" stroke-linejoin="round"/><path d="M 404.82,225.98 L 397.3,217.01 L 404.82,214.27 Z" fill="#ff0000" stroke="none" stroke-linejoin="round"/></g><text x="375" y="205.46" fill="#ff0000" stroke="#ffffff" stroke-width="4" stroke-linejoin="round" paint-order="stroke" font-family="'Latin Modern Roman','LM Roman 10','CMU Serif',serif" font-size="19" font-style="italic" text-anchor="end" xml:space="preserve"><tspan>M(x)</tspan></text></g>
<g><path d="M 455,158 L 393.02,218.1" fill="none" stroke="#444444" stroke-width="0.9" stroke-linecap="butt"/><path d="M 389,222 L 392.28,215.33 L 395.77,218.92 Z" fill="#444444" stroke="none" stroke-linejoin="round"/></g>
<text x="459" y="152.76" fill="#444444" stroke="#ffffff" stroke-width="4" stroke-linejoin="round" paint-order="stroke" font-family="'Latin Modern Roman','LM Roman 10','CMU Serif',serif" font-size="14" font-style="normal" text-anchor="start" xml:space="preserve"><tspan font-style="normal">negatives Schnittufer</tspan></text>
</g>
</svg>