<?xml version="1.0" encoding="UTF-8"?>
<svg xmlns="http://www.w3.org/2000/svg" xmlns:inkscape="http://www.inkscape.org/namespaces/inkscape" xmlns:sodipodi="http://sodipodi.sourceforge.net/DTD/sodipodi-0.dtd" width="470" height="340" viewBox="0 0 470 340" class="tm-grafik">
<title>Moment einer Kraft in der Ebene</title>
<g inkscape:groupmode="layer" id="ebene" inkscape:label="01 r und F" data-ebene="ebene">
<g><path d="M 70,250 L 258.31,181.46" fill="none" stroke="#006414" stroke-width="1.8" stroke-linecap="butt"/><path d="M 267.34,178.18 L 257.43,186.04 L 254.69,178.52 Z" fill="#006414" stroke="none" stroke-linejoin="round"/></g>
<g><text x="169.44" y="244.55" fill="#006414" stroke="#ffffff" stroke-width="4" stroke-linejoin="round" paint-order="stroke" font-family="'Latin Modern Roman','LM Roman 10','CMU Serif',serif" font-size="19" font-style="italic" text-anchor="start" xml:space="preserve"><tspan>r</tspan></text><path d="M 169.94,226.31 L 180.89,226.31" fill="none" stroke="#006414" stroke-width="1.1" stroke-linecap="butt"/><path d="M 182.89,226.31 L 177.89,228.31 L 177.89,224.31 Z" fill="#006414" stroke="none" stroke-linejoin="round"/></g>
<g><path d="M 267.34,178.18 L 301.09,52.22" fill="none" stroke="#ff0000" stroke-width="1.9" stroke-linecap="butt"/><path d="M 303.57,42.95 L 304.33,55.57 L 296.6,53.5 Z" fill="#ff0000" stroke="none" stroke-linejoin="round"/></g>
<g><text x="313.57" y="79.41" fill="#ff0000" stroke="#ffffff" stroke-width="4" stroke-linejoin="round" paint-order="stroke" font-family="'Latin Modern Roman','LM Roman 10','CMU Serif',serif" font-size="19" font-style="italic" text-anchor="start" xml:space="preserve"><tspan>F</tspan></text><path d="M 314.07,61.17 L 325.02,61.17" fill="none" stroke="#ff0000" stroke-width="1.1" stroke-linecap="butt"/><path d="M 327.02,61.17 L 322.02,63.17 L 322.02,59.17 Z" fill="#ff0000" stroke="none" stroke-linejoin="round"/></g>
<circle cx="70" cy="250" r="3.6" fill="#000000" stroke="#000000" stroke-width="0.8"/>
<text x="58" y="267.78" fill="#000000" stroke="#ffffff" stroke-width="4" stroke-linejoin="round" paint-order="stroke" font-family="'Latin Modern Roman','LM Roman 10','CMU Serif',serif" font-size="17" font-style="italic" text-anchor="middle" xml:space="preserve"><tspan>0</tspan></text>
<text x="279.34" y="197.62" fill="#000000" stroke="#ffffff" stroke-width="4" stroke-linejoin="round" paint-order="stroke" font-family="'Latin Modern Roman','LM Roman 10','CMU Serif',serif" font-size="16" font-style="italic" text-anchor="start" xml:space="preserve"><tspan>A</tspan></text>
<path d="M 267.34,178.18 L 323.72,157.65" fill="none" stroke="#7a7a7a" stroke-width="0.8" stroke-linecap="butt" stroke-dasharray="4 3"/>
<g><path d="M 299.28,166.55 L 298.69,165.03 L 298.02,163.54 L 297.29,162.08 L 296.48,160.66 L 295.61,159.29 L 294.67,157.95 L 293.66,156.66 L 292.6,155.43 L 291.48,154.24 L 290.31,153.11 L 289.08,152.04 L 287.8,151.02 L 286.47,150.07 L 285.1,149.19 L 283.69,148.37 L 282.24,147.62 L 280.76,146.94 L 279.24,146.33 L 277.7,145.79 L 276.14,145.33" fill="none" stroke="#006414" stroke-width="0.8" stroke-linejoin="round"/><text x="297.06" y="150.84" fill="#006414" stroke="#ffffff" stroke-width="4" stroke-linejoin="round" paint-order="stroke" font-family="'Latin Modern Roman','LM Roman 10','CMU Serif',serif" font-size="15" font-style="italic" text-anchor="middle" xml:space="preserve"><tspan><tspan font-family="'Latin Modern Math'" font-style="normal">𝜑</tspan></tspan></text></g>
</g>
<g inkscape:groupmode="layer" id="flaeche" inkscape:label="02 Parallelogramm und Hebelarm" data-ebene="flaeche">
<path d="M 70,250 L 267.34,178.18 L 303.57,42.95 L 106.23,114.77 Z" fill="#fbe3e3" stroke="none" stroke-linejoin="round"/>
<path d="M 70,250 L 106.23,114.77" fill="none" stroke="#ff0000" stroke-width="1" stroke-linecap="butt" stroke-dasharray="5 4"/>
<path d="M 106.23,114.77 L 303.57,42.95" fill="none" stroke="#006414" stroke-width="1" stroke-linecap="butt" stroke-dasharray="5 4"/>
<path d="M 243.92,265.54 L 267.34,178.18" fill="none" stroke="#7a7a7a" stroke-width="0.8" stroke-linecap="butt" stroke-dasharray="10 4 2 4"/>
<path d="M 227.47,292.19 L 225.14,300.89 L 233.83,303.22" fill="none" stroke="#7a7a7a" stroke-width="0.8" stroke-linejoin="round"/>
<path d="M 70,250 L 236.16,294.52" fill="none" stroke="#0050b4" stroke-width="2" stroke-linecap="butt"/>
<text x="155.08" y="295.36" fill="#0050b4" stroke="#ffffff" stroke-width="4" stroke-linejoin="round" paint-order="stroke" font-family="'Latin Modern Roman','LM Roman 10','CMU Serif',serif" font-size="15" font-style="italic" text-anchor="start" xml:space="preserve"><tspan>b = r sin <tspan font-family="'Latin Modern Math'" font-style="normal">𝜑</tspan></tspan></text>
<text x="190" y="159.76" fill="#ff0000" stroke="#ffffff" stroke-width="4" stroke-linejoin="round" paint-order="stroke" font-family="'Latin Modern Roman','LM Roman 10','CMU Serif',serif" font-size="14" font-style="normal" text-anchor="middle" xml:space="preserve"><tspan font-style="normal">Fläche = |M|</tspan></text>
</g>
<g inkscape:groupmode="layer" id="komponenten" inkscape:label="03 Komponenten und ihre Hebelarme" data-ebene="komponenten">
<g><g><path d="M 50,250 L 363.6,250" fill="none" stroke="#006414" stroke-width="1.25" stroke-linecap="butt"/><path d="M 370,250 L 362,252.5 L 362,247.5 Z" fill="#006414" stroke="none" stroke-linejoin="round"/></g><text x="374" y="267.46" fill="#006414" stroke="#ffffff" stroke-width="4" stroke-linejoin="round" paint-order="stroke" font-family="'Latin Modern Roman','LM Roman 10','CMU Serif',serif" font-size="19" font-style="italic" text-anchor="start" xml:space="preserve"><tspan>x</tspan></text><g><path d="M 70,270 L 70,26.4" fill="none" stroke="#006414" stroke-width="1.25" stroke-linecap="butt"/><path d="M 70,20 L 72.5,28 L 67.5,28 Z" fill="#006414" stroke="none" stroke-linejoin="round"/></g><text x="78" y="24.46" fill="#006414" stroke="#ffffff" stroke-width="4" stroke-linejoin="round" paint-order="stroke" font-family="'Latin Modern Roman','LM Roman 10','CMU Serif',serif" font-size="19" font-style="italic" text-anchor="start" xml:space="preserve"><tspan>y</tspan></text></g>
<g><path d="M 267.34,178.18 L 295.57,178.18" fill="none" stroke="#ff0000" stroke-width="1.5" stroke-linecap="butt" stroke-dasharray="6 4"/><path d="M 303.57,178.18 L 293.57,181.68 L 293.57,174.68 Z" fill="#ff0000" stroke="none" stroke-linejoin="round"/><text x="285.45" y="202.64" fill="#ff0000" stroke="#ffffff" stroke-width="4" stroke-linejoin="round" paint-order="stroke" font-family="'Latin Modern Roman','LM Roman 10','CMU Serif',serif" font-size="19" font-style="italic" text-anchor="middle" xml:space="preserve"><tspan>F</tspan><tspan baseline-shift="sub" font-size="70%" font-style="italic">x</tspan></text></g>
<g><path d="M 267.34,178.18 L 267.34,50.95" fill="none" stroke="#ff0000" stroke-width="1.5" stroke-linecap="butt" stroke-dasharray="6 4"/><path d="M 267.34,42.95 L 270.84,52.95 L 263.84,52.95 Z" fill="#ff0000" stroke="none" stroke-linejoin="round"/><text x="247.34" y="117.02" fill="#ff0000" stroke="#ffffff" stroke-width="4" stroke-linejoin="round" paint-order="stroke" font-family="'Latin Modern Roman','LM Roman 10','CMU Serif',serif" font-size="19" font-style="italic" text-anchor="middle" xml:space="preserve"><tspan>F</tspan><tspan baseline-shift="sub" font-size="70%" font-style="italic">y</tspan></text></g>
<path d="M 267.34,178.18 L 267.34,250" fill="none" stroke="#7a7a7a" stroke-width="0.8" stroke-linecap="butt" stroke-dasharray="4 3"/>
<path d="M 267.34,178.18 L 70,178.18" fill="none" stroke="#7a7a7a" stroke-width="0.8" stroke-linecap="butt" stroke-dasharray="4 3"/>
<g><path d="M 70,254 L 70,282" fill="none" stroke="#006414" stroke-width="0.8" stroke-linecap="butt"/><path d="M 267.34,254 L 267.34,282" fill="none" stroke="#006414" stroke-width="0.8" stroke-linecap="butt"/><g><path d="M 76.4,276 L 260.94,276" fill="none" stroke="#006414" stroke-width="0.8" stroke-linecap="butt"/><path d="M 267.34,276 L 259.34,278.5 L 259.34,273.5 Z" fill="#006414" stroke="none" stroke-linejoin="round"/><path d="M 70,276 L 78,273.5 L 78,278.5 Z" fill="#006414" stroke="none" stroke-linejoin="round"/></g><text x="168.67" y="293.46" fill="#006414" stroke="#ffffff" stroke-width="4" stroke-linejoin="round" paint-order="stroke" font-family="'Latin Modern Roman','LM Roman 10','CMU Serif',serif" font-size="19" font-style="italic" text-anchor="middle" xml:space="preserve"><tspan>x</tspan></text></g>
<g><path d="M 74,250 L 102,250" fill="none" stroke="#006414" stroke-width="0.8" stroke-linecap="butt"/><path d="M 74,178.18 L 102,178.18" fill="none" stroke="#006414" stroke-width="0.8" stroke-linecap="butt"/><g><path d="M 96,243.6 L 96,184.58" fill="none" stroke="#006414" stroke-width="0.8" stroke-linecap="butt"/><path d="M 96,178.18 L 98.5,186.18 L 93.5,186.18 Z" fill="#006414" stroke="none" stroke-linejoin="round"/><path d="M 96,250 L 93.5,242 L 98.5,242 Z" fill="#006414" stroke="none" stroke-linejoin="round"/></g><text x="107" y="220.55" fill="#006414" stroke="#ffffff" stroke-width="4" stroke-linejoin="round" paint-order="stroke" font-family="'Latin Modern Roman','LM Roman 10','CMU Serif',serif" font-size="19" font-style="italic" text-anchor="middle" xml:space="preserve"><tspan>y</tspan></text></g>
</g>
</svg>