<?xml version="1.0" encoding="UTF-8"?>
<svg xmlns="http://www.w3.org/2000/svg" xmlns:inkscape="http://www.inkscape.org/namespaces/inkscape" xmlns:sodipodi="http://sodipodi.sourceforge.net/DTD/sodipodi-0.dtd" width="960" height="485" viewBox="0 0 960 485" class="tm-grafik">
<title>Zusammenfassung: mathematische Werkzeuge</title>
<g inkscape:groupmode="layer" id="k-komponenten" inkscape:label="01 Komponenten" data-ebene="k-komponenten">
<path d="M 15,15 L 315,15 L 315,235 L 15,235 Z" fill="#fafafa" stroke="#c8c8c8" stroke-width="1.2" stroke-linejoin="round"/>
<text x="29" y="42.78" fill="#000000" stroke="#ffffff" stroke-width="4" stroke-linejoin="round" paint-order="stroke" font-family="'Latin Modern Roman','LM Roman 10','CMU Serif',serif" font-size="17" font-style="normal" text-anchor="start" xml:space="preserve"><tspan font-style="normal">Komponenten</tspan></text>
<text x="165" y="220.78" fill="#ff0000" stroke="#ffffff" stroke-width="4" stroke-linejoin="round" paint-order="stroke" font-family="'Latin Modern Roman','LM Roman 10','CMU Serif',serif" font-size="17" font-style="italic" text-anchor="middle" xml:space="preserve"><tspan>F</tspan><tspan baseline-shift="sub" font-size="70%" font-style="italic">x</tspan><tspan> = F cos α,  F</tspan><tspan baseline-shift="sub" font-size="70%" font-style="italic">y</tspan><tspan> = F sin α</tspan></text>
<g><g><path d="M 85,175 L 248.6,175" fill="none" stroke="#006414" stroke-width="1.25" stroke-linecap="butt"/><path d="M 255,175 L 247,177.5 L 247,172.5 Z" fill="#006414" stroke="none" stroke-linejoin="round"/></g><text x="259" y="192.46" fill="#006414" stroke="#ffffff" stroke-width="4" stroke-linejoin="round" paint-order="stroke" font-family="'Latin Modern Roman','LM Roman 10','CMU Serif',serif" font-size="19" font-style="italic" text-anchor="start" xml:space="preserve"><tspan>x</tspan></text><g><path d="M 85,175 L 85,61.4" fill="none" stroke="#006414" stroke-width="1.25" stroke-linecap="butt"/><path d="M 85,55 L 87.5,63 L 82.5,63 Z" fill="#006414" stroke="none" stroke-linejoin="round"/></g><text x="93" y="59.46" fill="#006414" stroke="#ffffff" stroke-width="4" stroke-linejoin="round" paint-order="stroke" font-family="'Latin Modern Roman','LM Roman 10','CMU Serif',serif" font-size="19" font-style="italic" text-anchor="start" xml:space="preserve"><tspan>y</tspan></text></g>
<path d="M 225,80 L 225,175" fill="none" stroke="#7a7a7a" stroke-width="0.8" stroke-linecap="butt" stroke-dasharray="4 3"/>
<path d="M 225,80 L 85,80" fill="none" stroke="#7a7a7a" stroke-width="0.8" stroke-linecap="butt" stroke-dasharray="4 3"/>
<g><path d="M 85,175 L 217.06,85.39" fill="none" stroke="#ff0000" stroke-width="1.9" stroke-linecap="butt"/><path d="M 225,80 L 217.32,90.05 L 212.82,83.43 Z" fill="#ff0000" stroke="none" stroke-linejoin="round"/><text x="141" y="125.96" fill="#ff0000" stroke="#ffffff" stroke-width="4" stroke-linejoin="round" paint-order="stroke" font-family="'Latin Modern Roman','LM Roman 10','CMU Serif',serif" font-size="19" font-style="italic" text-anchor="middle" xml:space="preserve"><tspan>F</tspan></text></g>
<g><path d="M 125,175 L 124.98,173.81 L 124.93,172.62 L 124.84,171.43 L 124.72,170.24 L 124.56,169.06 L 124.36,167.88 L 124.13,166.71 L 123.87,165.55 L 123.57,164.4 L 123.24,163.25 L 122.87,162.12 L 122.47,160.99 L 122.03,159.88 L 121.57,158.79 L 121.07,157.7 L 120.54,156.64 L 119.97,155.59 L 119.38,154.55 L 118.75,153.54 L 118.1,152.54" fill="none" stroke="#006414" stroke-width="0.8" stroke-linejoin="round"/><text x="132.79" y="165.41" fill="#006414" stroke="#ffffff" stroke-width="4" stroke-linejoin="round" paint-order="stroke" font-family="'Latin Modern Roman','LM Roman 10','CMU Serif',serif" font-size="15" font-style="italic" text-anchor="middle" xml:space="preserve"><tspan>α</tspan></text></g>
</g>
<g inkscape:groupmode="layer" id="k-addition" inkscape:label="02 Addition" data-ebene="k-addition">
<path d="M 330,15 L 630,15 L 630,235 L 330,235 Z" fill="#fafafa" stroke="#c8c8c8" stroke-width="1.2" stroke-linejoin="round"/>
<text x="344" y="42.78" fill="#000000" stroke="#ffffff" stroke-width="4" stroke-linejoin="round" paint-order="stroke" font-family="'Latin Modern Roman','LM Roman 10','CMU Serif',serif" font-size="17" font-style="normal" text-anchor="start" xml:space="preserve"><tspan font-style="normal">Kräfte addieren</tspan></text>
<text x="480" y="220.78" fill="#ff0000" stroke="#ffffff" stroke-width="4" stroke-linejoin="round" paint-order="stroke" font-family="'Latin Modern Roman','LM Roman 10','CMU Serif',serif" font-size="17" font-style="italic" text-anchor="middle" xml:space="preserve"><tspan>F</tspan><tspan baseline-shift="sub" font-size="70%" font-style="normal">R</tspan><tspan> = F</tspan><tspan baseline-shift="sub" font-size="70%" font-style="normal">1</tspan><tspan> + F</tspan><tspan baseline-shift="sub" font-size="70%" font-style="normal">2</tspan></text>
<path d="M 540,150 L 580,50" fill="none" stroke="#7a7a7a" stroke-width="1.25" stroke-linecap="butt" stroke-dasharray="6 4"/>
<path d="M 430,80 L 580,50" fill="none" stroke="#7a7a7a" stroke-width="1.25" stroke-linecap="butt" stroke-dasharray="6 4"/>
<g><path d="M 390,180 L 530.59,151.88" fill="none" stroke="#ff0000" stroke-width="1.9" stroke-linecap="butt"/><path d="M 540,150 L 529.02,156.28 L 527.45,148.43 Z" fill="#ff0000" stroke="none" stroke-linejoin="round"/><text x="465" y="187.46" fill="#ff0000" stroke="#ffffff" stroke-width="4" stroke-linejoin="round" paint-order="stroke" font-family="'Latin Modern Roman','LM Roman 10','CMU Serif',serif" font-size="19" font-style="italic" text-anchor="middle" xml:space="preserve"><tspan>F</tspan><tspan baseline-shift="sub" font-size="70%" font-style="normal">1</tspan></text></g>
<g><path d="M 390,180 L 426.43,88.91" fill="none" stroke="#ff0000" stroke-width="1.9" stroke-linecap="butt"/><path d="M 430,80 L 429.26,92.63 L 421.83,89.66 Z" fill="#ff0000" stroke="none" stroke-linejoin="round"/><text x="394" y="136.46" fill="#ff0000" stroke="#ffffff" stroke-width="4" stroke-linejoin="round" paint-order="stroke" font-family="'Latin Modern Roman','LM Roman 10','CMU Serif',serif" font-size="19" font-style="italic" text-anchor="middle" xml:space="preserve"><tspan>F</tspan><tspan baseline-shift="sub" font-size="70%" font-style="normal">2</tspan></text></g>
<g><path d="M 390,180 L 572.08,55.42" fill="none" stroke="#ff0000" stroke-width="2.6" stroke-linecap="butt"/><path d="M 580,50 L 572.36,60.08 L 567.84,53.47 Z" fill="#ff0000" stroke="none" stroke-linejoin="round"/><text x="471" y="111.46" fill="#ff0000" stroke="#ffffff" stroke-width="4" stroke-linejoin="round" paint-order="stroke" font-family="'Latin Modern Roman','LM Roman 10','CMU Serif',serif" font-size="19" font-style="italic" text-anchor="middle" xml:space="preserve"><tspan>F</tspan><tspan baseline-shift="sub" font-size="70%" font-style="normal">R</tspan></text></g>
</g>
<g inkscape:groupmode="layer" id="k-arbeit" inkscape:label="03 Arbeit" data-ebene="k-arbeit">
<path d="M 645,15 L 945,15 L 945,235 L 645,235 Z" fill="#fafafa" stroke="#c8c8c8" stroke-width="1.2" stroke-linejoin="round"/>
<text x="659" y="42.78" fill="#000000" stroke="#ffffff" stroke-width="4" stroke-linejoin="round" paint-order="stroke" font-family="'Latin Modern Roman','LM Roman 10','CMU Serif',serif" font-size="17" font-style="normal" text-anchor="start" xml:space="preserve"><tspan font-style="normal">Arbeit (Skalarprodukt)</tspan></text>
<text x="795" y="220.78" fill="#ff0000" stroke="#ffffff" stroke-width="4" stroke-linejoin="round" paint-order="stroke" font-family="'Latin Modern Roman','LM Roman 10','CMU Serif',serif" font-size="17" font-style="italic" text-anchor="middle" xml:space="preserve"><tspan>W = F s cos <tspan font-family="'Latin Modern Math'" font-style="normal">𝜑</tspan></tspan></text>
<g><path d="M 685,175 L 905.54,136.64" fill="none" stroke="#000000" stroke-width="1.6" stroke-linecap="butt"/><path d="M 915,135 L 903.86,141 L 902.49,133.12 Z" fill="#000000" stroke="none" stroke-linejoin="round"/></g>
<g><text x="879.77" y="163.46" fill="#000000" stroke="#ffffff" stroke-width="4" stroke-linejoin="round" paint-order="stroke" font-family="'Latin Modern Roman','LM Roman 10','CMU Serif',serif" font-size="19" font-style="italic" text-anchor="start" xml:space="preserve"><tspan>s</tspan></text><path d="M 880.27,145.22 L 891.23,145.22" fill="none" stroke="#000000" stroke-width="1.1" stroke-linecap="butt"/><path d="M 893.23,145.22 L 888.23,147.22 L 888.23,143.22 Z" fill="#000000" stroke="none" stroke-linejoin="round"/></g>
<g><path d="M 685,175 L 749.85,73.1" fill="none" stroke="#ff0000" stroke-width="1.9" stroke-linecap="butt"/><path d="M 755,65 L 751.93,77.27 L 745.18,72.98 Z" fill="#ff0000" stroke="none" stroke-linejoin="round"/></g>
<g><text x="726.55" y="71.46" fill="#ff0000" stroke="#ffffff" stroke-width="4" stroke-linejoin="round" paint-order="stroke" font-family="'Latin Modern Roman','LM Roman 10','CMU Serif',serif" font-size="19" font-style="italic" text-anchor="start" xml:space="preserve"><tspan>F</tspan></text><path d="M 727.05,53.22 L 738,53.22" fill="none" stroke="#ff0000" stroke-width="1.1" stroke-linecap="butt"/><path d="M 740,53.22 L 735,55.22 L 735,51.22 Z" fill="#ff0000" stroke="none" stroke-linejoin="round"/></g>
<g><path d="M 732.29,166.78 L 731.91,164.82 L 731.44,162.87 L 730.9,160.95 L 730.28,159.06 L 729.57,157.19 L 728.79,155.35 L 727.94,153.55 L 727.01,151.78 L 726.01,150.05 L 724.94,148.37 L 723.79,146.73 L 722.58,145.14 L 721.31,143.61 L 719.97,142.12 L 718.58,140.7 L 717.12,139.33 L 715.61,138.03 L 714.05,136.79 L 712.43,135.61 L 710.77,134.5" fill="none" stroke="#006414" stroke-width="0.8" stroke-linejoin="round"/><text x="733.25" y="147.92" fill="#006414" stroke="#ffffff" stroke-width="4" stroke-linejoin="round" paint-order="stroke" font-family="'Latin Modern Roman','LM Roman 10','CMU Serif',serif" font-size="15" font-style="italic" text-anchor="middle" xml:space="preserve"><tspan><tspan font-family="'Latin Modern Math'" font-style="normal">𝜑</tspan></tspan></text></g>
</g>
<g inkscape:groupmode="layer" id="k-moment" inkscape:label="04 Moment" data-ebene="k-moment">
<path d="M 15,250 L 315,250 L 315,470 L 15,470 Z" fill="#fafafa" stroke="#c8c8c8" stroke-width="1.2" stroke-linejoin="round"/>
<text x="29" y="277.78" fill="#000000" stroke="#ffffff" stroke-width="4" stroke-linejoin="round" paint-order="stroke" font-family="'Latin Modern Roman','LM Roman 10','CMU Serif',serif" font-size="17" font-style="normal" text-anchor="start" xml:space="preserve"><tspan font-style="normal">Moment</tspan></text>
<text x="165" y="455.78" fill="#ff0000" stroke="#ffffff" stroke-width="4" stroke-linejoin="round" paint-order="stroke" font-family="'Latin Modern Roman','LM Roman 10','CMU Serif',serif" font-size="17" font-style="italic" text-anchor="middle" xml:space="preserve"><tspan>M = F b = x F</tspan><tspan baseline-shift="sub" font-size="70%" font-style="italic">y</tspan><tspan> − y F</tspan><tspan baseline-shift="sub" font-size="70%" font-style="italic">x</tspan></text>
<path d="M 192.61,421.52 L 245.78,275.43" fill="none" stroke="#7a7a7a" stroke-width="0.9" stroke-linecap="butt" stroke-dasharray="10 4 2 4"/>
<g><g><path d="M 215,360 L 235.66,303.24" fill="none" stroke="#ff0000" stroke-width="1.9" stroke-linecap="butt"/><path d="M 238.94,294.22 L 238.6,306.87 L 231.08,304.13 Z" fill="#ff0000" stroke="none" stroke-linejoin="round"/></g><text x="223.3" y="317.34" fill="#ff0000" stroke="#ffffff" stroke-width="4" stroke-linejoin="round" paint-order="stroke" font-family="'Latin Modern Roman','LM Roman 10','CMU Serif',serif" font-size="19" font-style="italic" text-anchor="end" xml:space="preserve"><tspan>F</tspan></text></g>
<path d="M 75,400 L 185.77,440.32" fill="none" stroke="#0050b4" stroke-width="2" stroke-linecap="butt"/>
<text x="136.38" y="439.94" fill="#0050b4" stroke="#ffffff" stroke-width="4" stroke-linejoin="round" paint-order="stroke" font-family="'Latin Modern Roman','LM Roman 10','CMU Serif',serif" font-size="17" font-style="italic" text-anchor="start" xml:space="preserve"><tspan>b</tspan></text>
<circle cx="75" cy="400" r="3.4" fill="#000000" stroke="#000000" stroke-width="0.8"/>
<text x="57" y="421.44" fill="#000000" stroke="#ffffff" stroke-width="4" stroke-linejoin="round" paint-order="stroke" font-family="'Latin Modern Roman','LM Roman 10','CMU Serif',serif" font-size="16" font-style="italic" text-anchor="middle" xml:space="preserve"><tspan>0</tspan></text>
<g><path d="M 87,379.22 L 84.76,378.07 L 82.42,377.17 L 79.99,376.52 L 77.51,376.13 L 75,376 L 72.49,376.13 L 70.01,376.52 L 67.58,377.17 L 65.24,378.07 L 63,379.22 L 60.89,380.58 L 58.94,382.16 L 57.16,383.94 L 55.58,385.89 L 54.22,388 L 53.07,390.24 L 52.17,392.58 L 51.52,395.01 L 51.13,397.49 L 51,400 L 51.13,402.51 L 51.52,404.99 L 52.17,407.42 L 53.07,409.76 L 54.22,412 L 55.58,414.11 L 57.16,416.06 L 58.94,417.84 L 60.89,419.42 L 63,420.78 L 65.24,421.93 L 67.58,422.83 L 70.01,423.48 L 72.49,423.87 L 75,424 L 77.51,423.87 L 79.99,423.48" fill="none" stroke="#ff0000" stroke-width="1.9" stroke-linejoin="round"/><path d="M 89.6,419.28 L 82.07,428.25 L 78.07,421.32 Z" fill="#ff0000" stroke="none" stroke-linejoin="round"/></g>
</g>
<g inkscape:groupmode="layer" id="k-feder" inkscape:label="05 Feder" data-ebene="k-feder">
<path d="M 330,250 L 630,250 L 630,470 L 330,470 Z" fill="#fafafa" stroke="#c8c8c8" stroke-width="1.2" stroke-linejoin="round"/>
<text x="344" y="277.78" fill="#000000" stroke="#ffffff" stroke-width="4" stroke-linejoin="round" paint-order="stroke" font-family="'Latin Modern Roman','LM Roman 10','CMU Serif',serif" font-size="17" font-style="normal" text-anchor="start" xml:space="preserve"><tspan font-style="normal">Feder</tspan></text>
<text x="480" y="455.78" fill="#ff0000" stroke="#ffffff" stroke-width="4" stroke-linejoin="round" paint-order="stroke" font-family="'Latin Modern Roman','LM Roman 10','CMU Serif',serif" font-size="17" font-style="italic" text-anchor="middle" xml:space="preserve"><tspan>F = c u</tspan></text>
<g><path d="M 400,290 L 440,290" fill="none" stroke="#000000" stroke-width="1.25" stroke-linecap="butt"/><path d="M 402,290 L 409,283" fill="none" stroke="#000000" stroke-width="0.8" stroke-linecap="butt"/><path d="M 408,290 L 415,283" fill="none" stroke="#000000" stroke-width="0.8" stroke-linecap="butt"/><path d="M 414,290 L 421,283" fill="none" stroke="#000000" stroke-width="0.8" stroke-linecap="butt"/><path d="M 420,290 L 427,283" fill="none" stroke="#000000" stroke-width="0.8" stroke-linecap="butt"/><path d="M 426,290 L 433,283" fill="none" stroke="#000000" stroke-width="0.8" stroke-linecap="butt"/><path d="M 432,290 L 439,283" fill="none" stroke="#000000" stroke-width="0.8" stroke-linecap="butt"/><path d="M 438,290 L 445,283" fill="none" stroke="#000000" stroke-width="0.8" stroke-linecap="butt"/></g>
<path d="M 420,290 L 420,300 L 427,303.75 L 413,311.25 L 427,318.75 L 413,326.25 L 427,333.75 L 413,341.25 L 427,348.75 L 413,356.25 L 427,363.75 L 413,371.25 L 427,378.75 L 413,386.25 L 420,390 L 420,400" fill="none" stroke="#000000" stroke-width="1.3" stroke-linejoin="round"/>
<path d="M 404,400 L 436,400 L 436,408 L 404,408 Z" fill="#cfcfcf" stroke="#000000" stroke-width="1.25" stroke-linejoin="round"/>
<g><g><path d="M 420,408 L 420,433.4" fill="none" stroke="#ff0000" stroke-width="1.9" stroke-linecap="butt"/><path d="M 420,443 L 416,431 L 424,431 Z" fill="#ff0000" stroke="none" stroke-linejoin="round"/></g><text x="429" y="438.96" fill="#ff0000" stroke="#ffffff" stroke-width="4" stroke-linejoin="round" paint-order="stroke" font-family="'Latin Modern Roman','LM Roman 10','CMU Serif',serif" font-size="19" font-style="italic" text-anchor="start" xml:space="preserve"><tspan>F</tspan></text></g>
<g><g><path d="M 500,420 L 603.6,420" fill="none" stroke="#006414" stroke-width="1.25" stroke-linecap="butt"/><path d="M 610,420 L 602,422.5 L 602,417.5 Z" fill="#006414" stroke="none" stroke-linejoin="round"/></g><text x="614" y="437.46" fill="#006414" stroke="#ffffff" stroke-width="4" stroke-linejoin="round" paint-order="stroke" font-family="'Latin Modern Roman','LM Roman 10','CMU Serif',serif" font-size="19" font-style="italic" text-anchor="start" xml:space="preserve"><tspan>u</tspan></text><g><path d="M 500,420 L 500,306.4" fill="none" stroke="#006414" stroke-width="1.25" stroke-linecap="butt"/><path d="M 500,300 L 502.5,308 L 497.5,308 Z" fill="#006414" stroke="none" stroke-linejoin="round"/></g><text x="508" y="304.46" fill="#006414" stroke="#ffffff" stroke-width="4" stroke-linejoin="round" paint-order="stroke" font-family="'Latin Modern Roman','LM Roman 10','CMU Serif',serif" font-size="19" font-style="italic" text-anchor="start" xml:space="preserve"><tspan>F</tspan></text></g>
<path d="M 500,420 L 590,320" fill="none" stroke="#ff0000" stroke-width="2" stroke-linecap="butt"/>
<text x="570" y="375.44" fill="#006414" stroke="#ffffff" stroke-width="4" stroke-linejoin="round" paint-order="stroke" font-family="'Latin Modern Roman','LM Roman 10','CMU Serif',serif" font-size="16" font-style="italic" text-anchor="start" xml:space="preserve"><tspan>c</tspan></text>
</g>
<g inkscape:groupmode="layer" id="k-elastisch" inkscape:label="06 Starr und elastisch" data-ebene="k-elastisch">
<path d="M 645,250 L 945,250 L 945,470 L 645,470 Z" fill="#fafafa" stroke="#c8c8c8" stroke-width="1.2" stroke-linejoin="round"/>
<text x="659" y="277.78" fill="#000000" stroke="#ffffff" stroke-width="4" stroke-linejoin="round" paint-order="stroke" font-family="'Latin Modern Roman','LM Roman 10','CMU Serif',serif" font-size="17" font-style="normal" text-anchor="start" xml:space="preserve"><tspan font-style="normal">Starr = elastisch nach außen</tspan></text>
<text x="795" y="455.78" fill="#ff0000" stroke="#ffffff" stroke-width="4" stroke-linejoin="round" paint-order="stroke" font-family="'Latin Modern Roman','LM Roman 10','CMU Serif',serif" font-size="17" font-style="italic" text-anchor="middle" xml:space="preserve"><tspan>gleiche Lagerkräfte</tspan></text>
<g><path d="M 685,328 L 905,328 L 905,322 L 685,322 Z" fill="#e6e6e6" stroke="#000000" stroke-width="1.25" stroke-linejoin="round"/></g>
<g><g><path d="M 685,328 L 677.35,340.15 L 692.65,340.15 Z" fill="#d9d9d9" stroke="#000000" stroke-width="1.25" stroke-linejoin="round"/><path d="M 672.85,340.15 L 697.15,340.15" fill="none" stroke="#000000" stroke-width="1.25" stroke-linecap="butt"/><path d="M 674.85,340.15 L 667.85,347.15" fill="none" stroke="#000000" stroke-width="0.8" stroke-linecap="butt"/><path d="M 680.85,340.15 L 673.85,347.15" fill="none" stroke="#000000" stroke-width="0.8" stroke-linecap="butt"/><path d="M 686.85,340.15 L 679.85,347.15" fill="none" stroke="#000000" stroke-width="0.8" stroke-linecap="butt"/><path d="M 692.85,340.15 L 685.85,347.15" fill="none" stroke="#000000" stroke-width="0.8" stroke-linecap="butt"/><circle cx="685" cy="328" r="3.2" fill="#ffffff" stroke="#000000" stroke-width="1.25"/></g></g>
<g><g><path d="M 905,328 L 897.35,340.15 L 912.65,340.15 Z" fill="#d9d9d9" stroke="#000000" stroke-width="1.25" stroke-linejoin="round"/><path d="M 894.2,340.15 L 915.8,340.15" fill="none" stroke="#000000" stroke-width="1.25" stroke-linecap="butt"/><path d="M 892.85,344.65 L 917.15,344.65" fill="none" stroke="#000000" stroke-width="1.25" stroke-linecap="butt"/><path d="M 894.85,344.65 L 887.85,351.65" fill="none" stroke="#000000" stroke-width="0.8" stroke-linecap="butt"/><path d="M 900.85,344.65 L 893.85,351.65" fill="none" stroke="#000000" stroke-width="0.8" stroke-linecap="butt"/><path d="M 906.85,344.65 L 899.85,351.65" fill="none" stroke="#000000" stroke-width="0.8" stroke-linecap="butt"/><path d="M 912.85,344.65 L 905.85,351.65" fill="none" stroke="#000000" stroke-width="0.8" stroke-linecap="butt"/><circle cx="905" cy="328" r="3.2" fill="#ffffff" stroke="#000000" stroke-width="1.25"/></g></g>
<g><g><path d="M 773,290 L 773,312.4" fill="none" stroke="#ff0000" stroke-width="1.9" stroke-linecap="butt"/><path d="M 773,322 L 769,310 L 777,310 Z" fill="#ff0000" stroke="none" stroke-linejoin="round"/></g><text x="782" y="306.06" fill="#ff0000" stroke="#ffffff" stroke-width="4" stroke-linejoin="round" paint-order="stroke" font-family="'Latin Modern Roman','LM Roman 10','CMU Serif',serif" font-size="19" font-style="italic" text-anchor="start" xml:space="preserve"><tspan>F</tspan></text></g>
<g><g><path d="M 685,367 L 685,354.6" fill="none" stroke="#ff0000" stroke-width="1.9" stroke-linecap="butt"/><path d="M 685,345 L 689,357 L 681,357 Z" fill="#ff0000" stroke="none" stroke-linejoin="round"/></g></g>
<g><g><path d="M 905,361 L 905,354.6" fill="none" stroke="#ff0000" stroke-width="1.9" stroke-linecap="butt"/><path d="M 905,345 L 909,357 L 901,357 Z" fill="#ff0000" stroke="none" stroke-linejoin="round"/></g></g>
<path d="M 685,395 L 690.5,395.94 L 696,396.88 L 701.5,397.8 L 707,398.71 L 712.5,399.59 L 718,400.45 L 723.5,401.27 L 729,402.05 L 734.5,402.79 L 740,403.49 L 745.5,404.12 L 751,404.71 L 756.5,405.23 L 762,405.69 L 767.5,406.09 L 773,406.41 L 778.5,406.67 L 784,406.85 L 789.5,406.96 L 795,407 L 800.5,406.96 L 806,406.85 L 811.5,406.67 L 817,406.41 L 822.5,406.09 L 828,405.69 L 833.5,405.23 L 839,404.71 L 844.5,404.12 L 850,403.49 L 855.5,402.79 L 861,402.05 L 866.5,401.27 L 872,400.45 L 877.5,399.59 L 883,398.71 L 888.5,397.8 L 894,396.88 L 899.5,395.94 L 905,395" fill="none" stroke="#000000" stroke-width="7" stroke-linejoin="round"/>
<path d="M 685,395 L 690.5,395.94 L 696,396.88 L 701.5,397.8 L 707,398.71 L 712.5,399.59 L 718,400.45 L 723.5,401.27 L 729,402.05 L 734.5,402.79 L 740,403.49 L 745.5,404.12 L 751,404.71 L 756.5,405.23 L 762,405.69 L 767.5,406.09 L 773,406.41 L 778.5,406.67 L 784,406.85 L 789.5,406.96 L 795,407 L 800.5,406.96 L 806,406.85 L 811.5,406.67 L 817,406.41 L 822.5,406.09 L 828,405.69 L 833.5,405.23 L 839,404.71 L 844.5,404.12 L 850,403.49 L 855.5,402.79 L 861,402.05 L 866.5,401.27 L 872,400.45 L 877.5,399.59 L 883,398.71 L 888.5,397.8 L 894,396.88 L 899.5,395.94 L 905,395" fill="none" stroke="#e6e6e6" stroke-width="4.5" stroke-linejoin="round"/>
<g><g><path d="M 685,398 L 677.35,410.15 L 692.65,410.15 Z" fill="#d9d9d9" stroke="#000000" stroke-width="1.25" stroke-linejoin="round"/><path d="M 672.85,410.15 L 697.15,410.15" fill="none" stroke="#000000" stroke-width="1.25" stroke-linecap="butt"/><path d="M 674.85,410.15 L 667.85,417.15" fill="none" stroke="#000000" stroke-width="0.8" stroke-linecap="butt"/><path d="M 680.85,410.15 L 673.85,417.15" fill="none" stroke="#000000" stroke-width="0.8" stroke-linecap="butt"/><path d="M 686.85,410.15 L 679.85,417.15" fill="none" stroke="#000000" stroke-width="0.8" stroke-linecap="butt"/><path d="M 692.85,410.15 L 685.85,417.15" fill="none" stroke="#000000" stroke-width="0.8" stroke-linecap="butt"/><circle cx="685" cy="398" r="3.2" fill="#ffffff" stroke="#000000" stroke-width="1.25"/></g></g>
<g><g><path d="M 905,398 L 897.35,410.15 L 912.65,410.15 Z" fill="#d9d9d9" stroke="#000000" stroke-width="1.25" stroke-linejoin="round"/><path d="M 894.2,410.15 L 915.8,410.15" fill="none" stroke="#000000" stroke-width="1.25" stroke-linecap="butt"/><path d="M 892.85,414.65 L 917.15,414.65" fill="none" stroke="#000000" stroke-width="1.25" stroke-linecap="butt"/><path d="M 894.85,414.65 L 887.85,421.65" fill="none" stroke="#000000" stroke-width="0.8" stroke-linecap="butt"/><path d="M 900.85,414.65 L 893.85,421.65" fill="none" stroke="#000000" stroke-width="0.8" stroke-linecap="butt"/><path d="M 906.85,414.65 L 899.85,421.65" fill="none" stroke="#000000" stroke-width="0.8" stroke-linecap="butt"/><path d="M 912.85,414.65 L 905.85,421.65" fill="none" stroke="#000000" stroke-width="0.8" stroke-linecap="butt"/><circle cx="905" cy="398" r="3.2" fill="#ffffff" stroke="#000000" stroke-width="1.25"/></g></g>
<g><g><path d="M 773,371.41 L 773,393.81" fill="none" stroke="#ff0000" stroke-width="1.9" stroke-linecap="butt"/><path d="M 773,403.41 L 769,391.41 L 777,391.41 Z" fill="#ff0000" stroke="none" stroke-linejoin="round"/></g><text x="782" y="387.47" fill="#ff0000" stroke="#ffffff" stroke-width="4" stroke-linejoin="round" paint-order="stroke" font-family="'Latin Modern Roman','LM Roman 10','CMU Serif',serif" font-size="19" font-style="italic" text-anchor="start" xml:space="preserve"><tspan>F</tspan></text></g>
<g><g><path d="M 685,437 L 685,424.6" fill="none" stroke="#ff0000" stroke-width="1.9" stroke-linecap="butt"/><path d="M 685,415 L 689,427 L 681,427 Z" fill="#ff0000" stroke="none" stroke-linejoin="round"/></g></g>
<g><g><path d="M 905,431 L 905,424.6" fill="none" stroke="#ff0000" stroke-width="1.9" stroke-linecap="butt"/><path d="M 905,415 L 909,427 L 901,427 Z" fill="#ff0000" stroke="none" stroke-linejoin="round"/></g></g>
</g>
</svg>